:FULLY-SPECIFIED
:FORCE-ALL-JOINTS-BE-3DOF
:DEGREES
2039
root -3.2616 15.2008 22.2781 898.213 -9.4014 173.349
lfemur -18.1091 10.1123 -23.1532
ltibia 58.0914 -0 0
lfoot -24.5817 20.7219 -0.202058
ltoes -43.486 0 0
rfemur -58.1184 -16.4699 19.1915
rtibia 71.3049 -0 0
rfoot -4.07284 3.29397 -0.0117573
rtoes -10.1809 0 0
lowerback 15.2812 -0.712294 -8.43546
upperback -0.528987 -2.36587 2.06426
thorax -8.7662 -0.731272 7.59158
lowerneck -2.49034 -3.48361 -6.21155
upperneck 6.98943 -4.58826 1.10356
head 2.85997 -2.4714 1.27697
lclavicle -2.22142e-14 5.725e-14 0
lhumerus -3.86194 -36.4375 87.1915
lradius 67.1106 0 0
lwrist -5.70146 0 0
lhand -24.8814 36.6743 0
lfingers 7.12502 0 0
lthumb 1.62611 -653.352 0
rclavicle -2.22142e-14 5.725e-14 0
rhumerus 2.39423 14.9971 -68.9401
rradius 118.473 0 0
rwrist -51.4195 0 0
rhand 56.3514 -388.932 0
rfingers 7.12502 0 0
rthumb 73.4281 351.385 0
2040
root -3.26541 15.2056 22.0939 897.863 -10.239 173.527
lfemur -17.5587 9.39862 -22.915
ltibia 57.9126 -0 0
lfoot -24.9171 21.0608 -0.206024
ltoes -43.6744 0 0
rfemur -57.6243 -16.5627 18.532
rtibia 70.1584 -0 0
rfoot -3.96606 3.06886 -0.0170068
rtoes -9.00741 0 0
lowerback 15.1515 -0.581494 -8.35997
upperback -0.560002 -2.15297 2.19863
thorax -8.76456 -0.626372 7.64687
lowerneck -2.21055 -3.81038 -6.68754
upperneck 7.25919 -5.05479 1.24264
head 2.94148 -2.72548 1.39097
lclavicle 2.15681e-14 4.77083e-15 0
lhumerus -7.98949 -36.9553 90.255
lradius 70.0078 0 0
lwrist -3.7475 0 0
lhand -24.916 36.6698 0
lfingers 7.12502 0 0
lthumb 1.59269 -653.356 0
rclavicle 2.15681e-14 4.77083e-15 0
rhumerus 6.1242 12.9537 -68.5137
rradius 113.654 0 0
rwrist -51.9281 0 0
rhand 68.7745 -395.117 0
rfingers 7.12502 0 0
rthumb 74.0795 389.01 0
2041
root -3.27233 15.2092 21.9048 897.514 -10.9536 173.731
lfemur -17.0124 8.68272 -22.6842
ltibia 57.7337 -0 0
lfoot -25.2524 21.3996 -0.208008
ltoes -43.8627 0 0
rfemur -57.1289 -16.6501 17.8713
rtibia 69.0119 -0 0
rfoot -3.85926 2.84373 -0.0218366
rtoes -7.83394 0 0
lowerback 14.8445 -0.438836 -8.15285
upperback -0.532614 -1.89101 2.26898
thorax -8.61271 -0.516754 7.53409
lowerneck -1.92782 -4.15302 -7.05193
upperneck 7.45086 -5.54498 1.34477
head 2.99486 -2.98709 1.47303
lclavicle -5.96354e-15 1.66979e-14 0
lhumerus -12.5502 -36.8548 93.4457
lradius 73.0844 0 0
lwrist -1.55401 0 0
lhand -24.0693 37.187 0
lfingers 7.12502 0 0
lthumb 2.41042 -652.847 0
rclavicle -5.96354e-15 1.66979e-14 0
rhumerus 10.0379 11.0551 -68.4497
rradius 107.974 0 0
rwrist -51.8759 0 0
rhand 77.5733 -405.361 0
rfingers 7.12502 0 0
rthumb 69.4846 401.951 0
2042
root -3.28162 15.2068 21.7152 897.114 -11.4771 173.989
lfemur -16.47 7.96469 -22.4608
ltibia 57.5549 -0 0
lfoot -25.5878 21.7385 -0.208008
ltoes -44.0511 0 0
rfemur -56.6323 -16.732 17.2096
rtibia 67.8654 -0 0
rfoot -3.75244 2.61859 -0.0262468
rtoes -6.66046 0 0
lowerback 14.5745 -0.248299 -7.82483
upperback -0.477313 -1.55162 2.32165
thorax -8.46736 -0.376232 7.31832
lowerneck -1.78362 -4.5135 -7.41086
upperneck 7.69028 -6.04796 1.42839
head 3.09333 -3.25561 1.54426
lclavicle 4.3832e-14 -2.54444e-14 0
lhumerus -17.5017 -36.2839 96.7191
lradius 76.3786 0 0
lwrist 1.79374 0 0
lhand -22.7786 37.9275 0
lfingers 7.12502 0 0
lthumb 3.65686 -652.124 0
rclavicle 4.3832e-14 -2.54444e-14 0
rhumerus 13.8845 9.39327 -68.5884
rradius 101.596 0 0
rwrist -50.6424 0 0
rhand 78.4714 -414.482 0
rfingers 7.12502 0 0
rthumb 68.87 394.552 0
2043
root -3.294 15.2028 21.5257 896.764 -11.9125 174.118
lfemur -15.9313 7.2446 -22.2446
ltibia 57.376 -0 0
lfoot -25.9231 22.0773 -0.206024
ltoes -44.2395 0 0
rfemur -56.1345 -16.8084 16.5469
rtibia 66.7189 -0 0
rfoot -3.64561 2.39345 -0.0302372
rtoes -5.48699 0 0
lowerback 14.2891 -0.0767466 -7.61554
upperback -0.499185 -1.26061 2.32717
thorax -8.38527 -0.246462 7.13237
lowerneck -1.56668 -4.78235 -7.65745
upperneck 8.03605 -6.44127 1.39008
head 3.20105 -3.47711 1.55965
lclavicle 1.23992e-14 -6.36111e-15 0
lhumerus -23.3376 -34.5856 100.129
lradius 80.2529 0 0
lwrist 6.75928 0 0
lhand -20.8828 38.7781 0
lfingers 7.12502 0 0
lthumb 5.48751 -651.313 0
rclavicle 1.23992e-14 -6.36111e-15 0
rhumerus 17.7056 8.08378 -68.8819
rradius 94.263 0 0
rwrist -47.2954 0 0
rhand 73.374 -415.757 0
rfingers 7.12502 0 0
rthumb 72.0524 381.994 0
2044
root -3.30855 15.1975 21.3299 896.378 -12.2025 174.276
lfemur -15.3962 6.52254 -22.0355
ltibia 57.1972 -0 0
lfoot -26.2585 22.4162 -0.202058
ltoes -44.4278 0 0
rfemur -55.6357 -16.8793 15.8833
rtibia 65.5723 -0 0
rfoot -3.53876 2.1683 -0.0338078
rtoes -4.31352 0 0
lowerback 13.9297 0.133994 -7.33748
upperback -0.464749 -0.90402 2.31158
thorax -8.2095 -0.095303 6.86806
lowerneck -1.55852 -5.0361 -7.87449
upperneck 8.51845 -6.79767 1.32082
head 3.39262 -3.68335 1.5538
lclavicle 2.16054e-14 -7.15625e-15 0
lhumerus -29.2393 -32.442 103.288
lradius 84.1918 0 0
lwrist 13.6697 0 0
lhand -19.6759 38.5954 0
lfingers 7.12502 0 0
lthumb 6.65268 -651.529 0
rclavicle 2.16054e-14 -7.15625e-15 0
rhumerus 21.5884 6.82992 -69.2959
rradius 85.6783 0 0
rwrist -40.6007 0 0
rhand 64.653 -409.445 0
rfingers 7.12502 0 0
rthumb 74.9316 360.085 0
2045
root -3.3255 15.1816 21.1391 896.036 -12.4569 174.315
lfemur -14.8645 5.79857 -21.8336
ltibia 57.0184 -0 0
lfoot -26.5938 22.755 -0.196108
ltoes -44.6162 0 0
rfemur -55.1358 -16.9446 15.2188
rtibia 64.4258 -0 0
rfoot -3.4319 1.94314 -0.0369585
rtoes -3.14005 0 0
lowerback 13.6593 0.339061 -7.12
upperback -0.45209 -0.578564 2.22614
thorax -8.09943 0.0469064 6.57442
lowerneck -1.69976 -5.27686 -8.04638
upperneck 9.11175 -7.12763 1.25929
head 3.65083 -3.8776 1.53684
lclavicle 2.24583e-14 -3.18055e-15 0
lhumerus -35.4053 -29.6136 106.095
lradius 88.4515 0 0
lwrist 21.7724 0 0
lhand -18.9614 38.1456 0
lfingers 7.12502 0 0
lthumb 7.34242 -652.002 0
rclavicle 2.24583e-14 -3.18055e-15 0
rhumerus 25.5204 5.83148 -69.8061
rradius 76.0623 0 0
rwrist -31.0255 0 0
rhand 55.1302 -401.512 0
rfingers 7.12502 0 0
rthumb 72.8831 335.195 0
2046
root -3.33815 15.1603 20.9527 895.736 -12.7523 174.341
lfemur -14.336 5.07278 -21.6386
ltibia 56.8395 -0 0
lfoot -26.9291 23.0938 -0.188176
ltoes -44.8046 0 0
rfemur -54.635 -17.0044 14.5535
rtibia 63.2793 -0 0
rfoot -3.32502 1.71798 -0.0396892
rtoes -1.96657 0 0
lowerback 13.4413 0.547677 -6.94353
upperback -0.451189 -0.263663 2.08847
thorax -8.02677 0.187293 6.25324
lowerneck -1.97405 -5.56441 -8.07695
upperneck 9.80588 -7.51132 1.12942
head 3.96592 -4.09841 1.46168
lclavicle 3.73964e-15 -2.46493e-14 0
lhumerus -41.5459 -26.5768 108.412
lradius 92.512 0 0
lwrist 30.3478 0 0
lhand -19.0824 35.411 0
lfingers 7.12502 0 0
lthumb 7.22564 -654.732 0
rclavicle 3.73964e-15 -2.46493e-14 0
rhumerus 29.4454 4.92055 -70.4457
rradius 65.3581 0 0
rwrist -19.5004 0 0
rhand 41.047 -393.861 0
rfingers 7.12502 0 0
rthumb 63.2572 316.304 0
2047
root -3.35855 15.1282 20.7562 895.344 -12.9026 174.161
lfemur -13.8105 4.34524 -21.4505
ltibia 56.6607 -0 0
lfoot -27.2643 23.4325 -0.178261
ltoes -44.993 0 0
rfemur -54.1333 -17.0586 13.8875
rtibia 62.1328 -0 0
rfoot -3.21814 1.49281 -0.0419999
rtoes -0.7931 0 0
lowerback 13.264 0.838153 -6.90972
upperback -0.416764 0.12479 1.83445
thorax -7.94899 0.365234 5.8749
lowerneck -2.03581 -5.85725 -8.29028
upperneck 10.3616 -7.94503 1.39415
head 4.22907 -4.33103 1.55428
lclavicle 1.23992e-14 5.80451e-14 0
lhumerus -48.2081 -23.3306 110.407
lradius 96.6894 0 0
lwrist 39.3636 0 0
lhand -18.6119 36.2627 0
lfingers 7.12502 0 0
lthumb 7.67971 -653.897 0
rclavicle 1.23992e-14 5.80451e-14 0
rhumerus 33.7221 4.17094 -71.1022
rradius 53.5305 0 0
rwrist -7.11204 0 0
rhand 21.8009 -392.151 0
rfingers 7.12502 0 0
rthumb 46.2089 304.842 0
